<svg style="object-fit:cover" id="my-svg" version="1" baseProfile="full" width="100%" height="100%" viewBox="0 0 1536 746" xmlns="http://www.w3.org/2000/svg"><rect width="1536" height="746" fill="#4d455d"/><path transform="scale(1, 1)" d="M 0,746 V 0,596 C 283.5,618 567,640 823,640 C 1079,640 1307.5,618 1536,596 C 1536,596 1536,746 1536,746 Z" stroke="none" stroke-width="0" fill="#e96479" class="transition-all duration-300 ease-in-out delay-150" style="transform-origin: center center;"/><path transform="scale(1, 1)" d="M 0,746 V 0,895 C 229,946.5 458,998 714,998 C 970,998 1253,946.5 1536,895 C 1536,895 1536,746 1536,746 Z" stroke="none" stroke-width="0" fill="#79e964" class="transition-all duration-300 ease-in-out delay-150" style="transform-origin: center center;"/><path transform="scale(1, 1)" d="M 0,746 V 0,1342 C 275,1296.5 550,1251 806,1251 C 1062,1251 1299,1296.5 1536,1342 C 1536,1342 1536,746 1536,746 Z" stroke="none" stroke-width="0" fill="#64e9d4" class="transition-all duration-300 ease-in-out delay-150" style="transform-origin: center center;"/><path transform="scale(1, 1)" d="M 0,746 V 0,2014 C 213,2059 426,2104 682,2104 C 938,2104 1237,2059 1536,2014 C 1536,2014 1536,746 1536,746 Z" stroke="none" stroke-width="0" fill="#d464e9" class="transition-all duration-300 ease-in-out delay-150" style="transform-origin: center center;"/></svg>