<svg xlink="http://www.w3.org/1999/xlink" viewBox="0 0 5000 5000" xmlns="http://www.w3.org/2000/svg" style="transform: scale(1);"><defs><filter id="goo"><feGaussianBlur in="SourceGraphic" stdDeviation="2.875" result="blur"></feGaussianBlur><feColorMatrix in="blur" type="matrix" values="1 0 0 0 0 0 1 0 0 0 0 0 1 0 0 0 0 0 19 -9" result="good"></feColorMatrix><feComposite in="SourceGraphic" in2="goo" operator="atop"></feComposite></filter><path d="M230,258L232,237L272,247Q280,264 262,269L230,258z" id="P0"></path><path d="M254,269L237,264L232,244L257,232L254,269z" id="P1"></path><path d="M268,267C248,278 227,267 226,242C240,241 245,238 250,225L274,244Q286,259 268,267z" id="P2"></path><path d="M257,264L239,262L257,236L265,254L257,264z" id="P3"></path><path d="M231,262Q228,223 265,232Q279,232 271,242C262,252 259,259 254,273Q237,282 231,262z" id="P4"></path><path d="M250,230L257,231L267,261L240,268L250,230z" id="P5"></path><path d="M214,259C231,249 232,243 220,228Q264,196 287,248C267,261 257,269 241,286Q210,288 214,259z" id="P6"></path><path d="M244,258L244,242L258,244L249,260L244,258z" id="P7"></path></defs><rect id="RECT" width="5000" height="5000" fill="#111"></rect><g id="group" fill="#FFF" filter="url(#goo)"><use x="263" y="256" href="#P1"></use><use x="-71" y="121" href="#P3"></use><use x="195" y="660" href="#P3"></use><use x="-451" y="771" href="#P7"></use><use x="210" y="1695" href="#P4"></use><use x="95" y="1820" href="#P5"></use><use x="135" y="2484" href="#P4"></use><use x="38" y="2813" href="#P1"></use><use x="294" y="3077" href="#P7"></use><use x="75" y="3605" href="#P4"></use><use x="121" y="3915" href="#P2"></use><use x="-404" y="4339" href="#P6"></use><use x="36" y="4964" href="#P4"></use><use x="30" y="5006" href="#P2"></use><use x="363" y="-269" href="#P0"></use><use x="73" y="18" href="#P5"></use><use x="711" y="1000" href="#P7"></use><use x="304" y="1292" href="#P5"></use><use x="506" y="1529" href="#P0"></use><use x="132" y="1889" href="#P7"></use><use x="54" y="2218" href="#P4"></use><use x="83" y="2909" href="#P2"></use><use x="131" y="2990" href="#P0"></use><use x="286" y="3570" href="#P2"></use><use x="400" y="3870" href="#P3"></use><use x="577" y="4251" href="#P4"></use><use x="719" y="4378" href="#P1"></use><use x="393" y="5283" href="#P5"></use><use x="488" y="-335" href="#P0"></use><use x="859" y="502" href="#P6"></use><use x="863" y="628" href="#P2"></use><use x="560" y="994" href="#P0"></use><use x="1119" y="1708" href="#P4"></use><use x="1212" y="1941" href="#P7"></use><use x="1342" y="2227" href="#P4"></use><use x="1212" y="2722" href="#P6"></use><use x="686" y="3137" href="#P1"></use><use x="496" y="3888" href="#P4"></use><use x="704" y="4092" href="#P3"></use><use x="636" y="4170" href="#P1"></use><use x="1095" y="4402" href="#P4"></use><use x="550" y="5357" href="#P1"></use><use x="1179" y="264" href="#P6"></use><use x="1211" y="363" href="#P3"></use><use x="1447" y="945" href="#P4"></use><use x="1436" y="1172" href="#P5"></use><use x="1246" y="1524" href="#P5"></use><use x="1096" y="2012" href="#P6"></use><use x="1043" y="2185" href="#P6"></use><use x="1045" y="2847" href="#P7"></use><use x="1415" y="2910" href="#P1"></use><use x="1482" y="3174" href="#P5"></use><use x="1266" y="3819" href="#P3"></use><use x="1099" y="4561" href="#P4"></use><use x="1314" y="4683" href="#P7"></use><use x="1179" y="4721" href="#P0"></use><use x="1872" y="150" href="#P4"></use><use x="1771" y="101" href="#P1"></use><use x="1701" y="999" href="#P7"></use><use x="1736" y="1310" href="#P5"></use><use x="1543" y="1348" href="#P6"></use><use x="1978" y="2109" href="#P0"></use><use x="1195" y="2072" href="#P6"></use><use x="1675" y="2864" href="#P2"></use><use x="1895" y="3174" href="#P1"></use><use x="1671" y="3602" href="#P4"></use><use x="1630" y="3618" href="#P1"></use><use x="1563" y="4752" href="#P3"></use><use x="1537" y="4764" href="#P4"></use><use x="1957" y="4492" href="#P3"></use><use x="1894" y="81" href="#P6"></use><use x="1900" y="116" href="#P7"></use><use x="2220" y="1123" href="#P0"></use><use x="2180" y="1096" href="#P1"></use><use x="1961" y="1174" href="#P0"></use><use x="2371" y="2250" href="#P3"></use><use x="2115" y="2226" href="#P2"></use><use x="2165" y="2789" href="#P7"></use><use x="2258" y="3147" href="#P5"></use><use x="2102" y="3904" href="#P2"></use><use x="1914" y="3864" href="#P0"></use><use x="2203" y="3811" href="#P6"></use><use x="1883" y="4912" href="#P7"></use><use x="2257" y="4994" href="#P4"></use><use x="2556" y="130" href="#P2"></use><use x="2524" y="46" href="#P3"></use><use x="2326" y="697" href="#P2"></use><use x="2679" y="1010" href="#P1"></use><use x="2513" y="1118" href="#P4"></use><use x="2514" y="2053" href="#P1"></use><use x="2512" y="2480" href="#P3"></use><use x="2559" y="2980" href="#P4"></use><use x="2497" y="2804" href="#P6"></use><use x="2619" y="3896" href="#P5"></use><use x="2308" y="3983" href="#P4"></use><use x="2571" y="3906" href="#P1"></use><use x="2598" y="4964" href="#P1"></use><use x="2659" y="4809" href="#P6"></use><use x="2821" y="299" href="#P0"></use><use x="2963" y="72" href="#P7"></use><use x="2742" y="633" href="#P0"></use><use x="2865" y="1095" href="#P7"></use><use x="2706" y="1792" href="#P4"></use><use x="2660" y="2204" href="#P2"></use><use x="2877" y="2482" href="#P1"></use><use x="2829" y="2575" href="#P5"></use><use x="2885" y="3031" href="#P5"></use><use x="2928" y="3769" href="#P3"></use><use x="2821" y="3640" href="#P5"></use><use x="2937" y="4258" href="#P5"></use><use x="2941" y="4931" href="#P4"></use><use x="3051" y="4748" href="#P2"></use><use x="3100" y="79" href="#P2"></use><use x="3434" y="230" href="#P1"></use><use x="3349" y="739" href="#P4"></use><use x="3248" y="1193" href="#P2"></use><use x="3384" y="1364" href="#P6"></use><use x="3197" y="1956" href="#P7"></use><use x="3126" y="2459" href="#P1"></use><use x="3386" y="2831" href="#P2"></use><use x="3126" y="2858" href="#P4"></use><use x="3511" y="3598" href="#P2"></use><use x="3162" y="3628" href="#P5"></use><use x="3648" y="4613" href="#P5"></use><use x="3338" y="4797" href="#P4"></use><use x="3379" y="4710" href="#P0"></use><use x="3679" y="320" href="#P4"></use><use x="3608" y="272" href="#P3"></use><use x="3721" y="354" href="#P3"></use><use x="3601" y="1299" href="#P5"></use><use x="3433" y="1662" href="#P0"></use><use x="3808" y="1907" href="#P3"></use><use x="3947" y="2394" href="#P7"></use><use x="3856" y="2989" href="#P5"></use><use x="3919" y="3002" href="#P1"></use><use x="3646" y="3220" href="#P3"></use><use x="3693" y="3603" href="#P5"></use><use x="4097" y="4370" href="#P1"></use><use x="3450" y="4558" href="#P6"></use><use x="3711" y="4936" href="#P4"></use><use x="4074" y="81" href="#P3"></use><use x="4328" y="189" href="#P5"></use><use x="3967" y="849" href="#P2"></use><use x="4370" y="875" href="#P3"></use><use x="4512" y="1176" href="#P0"></use><use x="3818" y="2084" href="#P1"></use><use x="4305" y="2474" href="#P5"></use><use x="3815" y="2591" href="#P5"></use><use x="4718" y="3440" href="#P7"></use><use x="4511" y="3858" href="#P7"></use><use x="4466" y="3934" href="#P3"></use><use x="4072" y="4448" href="#P5"></use><use x="4029" y="4266" href="#P6"></use><use x="4401" y="5395" href="#P3"></use><use x="4589" y="-293" href="#P6"></use><use x="5058" y="203" href="#P2"></use><use x="4360" y="1041" href="#P1"></use><use x="4251" y="1203" href="#P6"></use><use x="4717" y="1435" href="#P5"></use><use x="4859" y="1772" href="#P3"></use><use x="4331" y="2307" href="#P0"></use><use x="4894" y="2752" href="#P2"></use><use x="4857" y="3324" href="#P0"></use><use x="4405" y="3325" href="#P4"></use><use x="4259" y="3860" href="#P1"></use><use x="4419" y="4178" href="#P2"></use><use x="4966" y="4959" href="#P6"></use><use x="4551" y="4931" href="#P0"></use><use x="4889" y="9" href="#P5"></use><use x="5165" y="264" href="#P1"></use><use x="5478" y="694" href="#P5"></use><use x="4696" y="1215" href="#P4"></use><use x="4619" y="1834" href="#P1"></use><use x="4654" y="1929" href="#P1"></use><use x="4987" y="2302" href="#P1"></use><use x="4989" y="2584" href="#P5"></use><use x="4944" y="3069" href="#P2"></use><use x="4745" y="3246" href="#P5"></use><use x="4884" y="3635" href="#P1"></use><use x="5327" y="4530" href="#P3"></use><use x="5063" y="4877" href="#P5"></use><use x="5099" y="5027" href="#P3"></use></g></svg>