<svg style="object-fit:cover" id="my-svg" version="1" baseProfile="full" width="100%" height="100%" viewBox="0 0 1536 746" xmlns="http://www.w3.org/2000/svg"><rect width="1536" height="746" fill="#7dbb9b"/><path transform="scale(1, 1)" d="M 0,746 V 0,596 C 207.5,546 415,496 671,496 C 927,496 1231.5,546 1536,596 C 1536,596 1536,746 1536,746 Z" stroke="none" stroke-width="0" fill="#f5e9cf" class="transition-all duration-300 ease-in-out delay-150" style="transform-origin: center center;"/><path transform="scale(1, 1)" d="M 0,746 V 0,895 C 223.5,906 447,917 703,917 C 959,917 1247.5,906 1536,895 C 1536,895 1536,746 1536,746 Z" stroke="none" stroke-width="0" fill="#cfeef5" class="transition-all duration-300 ease-in-out delay-150" style="transform-origin: center center;"/><path transform="scale(1, 1)" d="M 0,746 V 0,1342 C 247,1239.5 494,1137 750,1137 C 1006,1137 1271,1239.5 1536,1342 C 1536,1342 1536,746 1536,746 Z" stroke="none" stroke-width="0" fill="#f5cfdb" class="transition-all duration-300 ease-in-out delay-150" style="transform-origin: center center;"/></svg>