<svg style="object-fit:cover" id="my-svg" version="1" baseProfile="full" width="100%" height="100%" viewBox="0 0 1536 746" xmlns="http://www.w3.org/2000/svg"><rect width="1536" height="746" fill="#7db9b6"/><path transform="scale(1, 1)" d="M 0,746 V 0,596 L 892,744 L 1536,596 C 1536,596 1536,746 1536,746 Z" stroke="none" stroke-width="0" fill="#f5e9cf" class="transition-all duration-300 ease-in-out delay-150" style="transform-origin: center center;"/><path transform="scale(1, 1)" d="M 0,746 V 0,895 L 633,785 L 1536,895 C 1536,895 1536,746 1536,746 Z" stroke="none" stroke-width="0" fill="#e8f5cf" class="transition-all duration-300 ease-in-out delay-150" style="transform-origin: center center;"/><path transform="scale(1, 1)" d="M 0,746 V 0,1342 L 713,1407 L 1536,1342 C 1536,1342 1536,746 1536,746 Z" stroke="none" stroke-width="0" fill="#cfebf5" class="transition-all duration-300 ease-in-out delay-150" style="transform-origin: center center;"/><path transform="scale(1, 1)" d="M 0,746 V 0,2014 L 808,1811 L 1536,2014 C 1536,2014 1536,746 1536,746 Z" stroke="none" stroke-width="0" fill="#f5cfee" class="transition-all duration-300 ease-in-out delay-150" style="transform-origin: center center;"/><path transform="scale(1, 1)" d="M 0,746 V 0,3021 L 786,3212 L 1536,3021 C 1536,3021 1536,746 1536,746 Z" stroke="none" stroke-width="0" fill="#f5cfd5" class="transition-all duration-300 ease-in-out delay-150" style="transform-origin: center center;"/></svg>