<svg style="object-fit:cover" id="my-svg" version="1" baseProfile="full" width="100%" height="100%" viewBox="0 0 1536 746" xmlns="http://www.w3.org/2000/svg"><rect width="1536" height="746" fill="#f5e9cf"/><path transform="scale(1, 1)" d="M 0,746 V 0,596 L 684,722 L 1536,596 C 1536,596 1536,746 1536,746 Z" stroke="none" stroke-width="0" fill="#e96479" class="transition-all duration-300 ease-in-out delay-150" style="transform-origin: center center;"/><path transform="scale(1, 1)" d="M 0,746 V 0,895 L 805,928 L 1536,895 C 1536,895 1536,746 1536,746 Z" stroke="none" stroke-width="0" fill="#e99264" class="transition-all duration-300 ease-in-out delay-150" style="transform-origin: center center;"/><path transform="scale(1, 1)" d="M 0,746 V 0,1342 L 888,1278 L 1536,1342 C 1536,1342 1536,746 1536,746 Z" stroke="none" stroke-width="0" fill="#79e964" class="transition-all duration-300 ease-in-out delay-150" style="transform-origin: center center;"/><path transform="scale(1, 1)" d="M 0,746 V 0,2014 L 790,1990 L 1536,2014 C 1536,2014 1536,746 1536,746 Z" stroke="none" stroke-width="0" fill="#64e992" class="transition-all duration-300 ease-in-out delay-150" style="transform-origin: center center;"/><path transform="scale(1, 1)" d="M 0,746 V 0,3021 L 728,3055 L 1536,3021 C 1536,3021 1536,746 1536,746 Z" stroke="none" stroke-width="0" fill="#6479e9" class="transition-all duration-300 ease-in-out delay-150" style="transform-origin: center center;"/><path transform="scale(1, 1)" d="M 0,746 V 0,4531 L 701,4650 L 1536,4531 C 1536,4531 1536,746 1536,746 Z" stroke="none" stroke-width="0" fill="#9264e9" class="transition-all duration-300 ease-in-out delay-150" style="transform-origin: center center;"/></svg>