<svg style="object-fit:cover" id="my-svg" version="1" baseProfile="full" width="100%" height="100%" viewBox="0 0 1536 746" xmlns="http://www.w3.org/2000/svg"><rect width="1536" height="746" fill="#4d455d"/><path transform="scale(1, 1)" d="M 0,746 V 0,596 L 810,735 L 1536,596 C 1536,596 1536,746 1536,746 Z" stroke="none" stroke-width="0" fill="#7db9b6" class="transition-all duration-300 ease-in-out delay-150" style="transform-origin: center center;"/><path transform="scale(1, 1)" d="M 0,746 V 0,895 L 863,861 L 1536,895 C 1536,895 1536,746 1536,746 Z" stroke="none" stroke-width="0" fill="#987db9" class="transition-all duration-300 ease-in-out delay-150" style="transform-origin: center center;"/><path transform="scale(1, 1)" d="M 0,746 V 0,1342 L 790,1230 L 1536,1342 C 1536,1342 1536,746 1536,746 Z" stroke="none" stroke-width="0" fill="#b97d80" class="transition-all duration-300 ease-in-out delay-150" style="transform-origin: center center;"/><path transform="scale(1, 1)" d="M 0,746 V 0,2014 L 890,1910 L 1536,2014 C 1536,2014 1536,746 1536,746 Z" stroke="none" stroke-width="0" fill="#9eb97d" class="transition-all duration-300 ease-in-out delay-150" style="transform-origin: center center;"/></svg>