<svg style="object-fit:cover" id="my-svg" version="1" baseProfile="full" width="100%" height="100%" viewBox="0 0 1536 746" xmlns="http://www.w3.org/2000/svg"><rect width="1536" height="746" fill="#e96479"/><path transform="scale(1, 1)" d="M 0,746 V 0,596 C 294.5,521 589,446 845,446 C 1101,446 1318.5,521 1536,596 C 1536,596 1536,746 1536,746 Z" stroke="none" stroke-width="0" fill="#7db9b6" class="transition-all duration-300 ease-in-out delay-150" style="transform-origin: center center;"/><path transform="scale(1, 1)" d="M 0,746 V 0,895 C 315.5,832 631,769 887,769 C 1143,769 1339.5,832 1536,895 C 1536,895 1536,746 1536,746 Z" stroke="none" stroke-width="0" fill="#b97d9e" class="transition-all duration-300 ease-in-out delay-150" style="transform-origin: center center;"/><path transform="scale(1, 1)" d="M 0,746 V 0,1342 C 297.5,1321 595,1300 851,1300 C 1107,1300 1321.5,1321 1536,1342 C 1536,1342 1536,746 1536,746 Z" stroke="none" stroke-width="0" fill="#80b97d" class="transition-all duration-300 ease-in-out delay-150" style="transform-origin: center center;"/></svg>