<svg style="object-fit:cover" id="my-svg" version="1" baseProfile="full" width="100%" height="100%" viewBox="0 0 1536 746" xmlns="http://www.w3.org/2000/svg"><rect width="1536" height="746" fill="#f5e9cf"/><path transform="scale(1, 1)" d="M 0,746 V 0,596 C 318,516.5 636,437 892,437 C 1148,437 1342,516.5 1536,596 C 1536,596 1536,746 1536,746 Z" stroke="none" stroke-width="0" fill="#4d455d" class="transition-all duration-300 ease-in-out delay-150" style="transform-origin: center center;"/><path transform="scale(1, 1)" d="M 0,746 V 0,895 C 271.5,959 543,1023 799,1023 C 1055,1023 1295.5,959 1536,895 C 1536,895 1536,746 1536,746 Z" stroke="none" stroke-width="0" fill="#5d455d" class="transition-all duration-300 ease-in-out delay-150" style="transform-origin: center center;"/><path transform="scale(1, 1)" d="M 0,746 V 0,1342 C 299.5,1409 599,1476 855,1476 C 1111,1476 1323.5,1409 1536,1342 C 1536,1342 1536,746 1536,746 Z" stroke="none" stroke-width="0" fill="#5d4549" class="transition-all duration-300 ease-in-out delay-150" style="transform-origin: center center;"/><path transform="scale(1, 1)" d="M 0,746 V 0,2014 C 237.5,1927.5 475,1841 731,1841 C 987,1841 1261.5,1927.5 1536,2014 C 1536,2014 1536,746 1536,746 Z" stroke="none" stroke-width="0" fill="#5d5145" class="transition-all duration-300 ease-in-out delay-150" style="transform-origin: center center;"/><path transform="scale(1, 1)" d="M 0,746 V 0,3021 C 241,2989 482,2957 738,2957 C 994,2957 1265,2989 1536,3021 C 1536,3021 1536,746 1536,746 Z" stroke="none" stroke-width="0" fill="#455d4f" class="transition-all duration-300 ease-in-out delay-150" style="transform-origin: center center;"/></svg>