<?xml version="1.0" standalone="no"?>
<svg viewBox="0 0 200 200" xmlns="http://www.w3.org/2000/svg">
  <path fill="#F36962" d="M41.5,-75.2C50.2,-66.9,51.2,-48.5,57.3,-34.3C63.4,-20.1,74.6,-10,79.5,2.8C84.5,15.7,83,31.4,76.6,45C70.1,58.6,58.6,70.1,45,73C31.4,75.9,15.7,70.1,3.5,64C-8.7,58,-17.4,51.6,-31.6,49.1C-45.8,46.6,-65.5,47.9,-76.3,40.4C-87,32.8,-88.8,16.4,-85.4,1.9C-82.1,-12.5,-73.6,-25.1,-65.3,-36.7C-56.9,-48.4,-48.6,-59.1,-37.8,-66.2C-26.9,-73.2,-13.5,-76.5,1.5,-79C16.4,-81.6,32.8,-83.5,41.5,-75.2Z" transform="translate(100 100)" />
</svg>
